<?xml version="1.0" encoding="UTF-8"?>
<!DOCTYPE svg PUBLIC "-//W3C//DTD SVG 1.1//EN" "http://www.w3.org/Graphics/SVG/1.1/DTD/svg11.dtd">
<svg xmlns="http://www.w3.org/2000/svg" version="1.1" width="2111px" height="1188px" style="shape-rendering:geometricPrecision; text-rendering:geometricPrecision; image-rendering:optimizeQuality; fill-rule:evenodd; clip-rule:evenodd" xmlns:xlink="http://www.w3.org/1999/xlink">
<g><path style="opacity:1" fill="#fefefe" d="M -0.5,-0.5 C 703.167,-0.5 1406.83,-0.5 2110.5,-0.5C 2110.5,395.5 2110.5,791.5 2110.5,1187.5C 1406.83,1187.5 703.167,1187.5 -0.5,1187.5C -0.5,791.5 -0.5,395.5 -0.5,-0.5 Z"/></g>
<g><path style="opacity:1" fill="#49a3d8" d="M 2054.5,35.5 C 1904.44,35.8287 1754.44,36.8287 1604.5,38.5C 1605.29,37.2058 1606.29,36.0391 1607.5,35C 1756.67,34.1672 1905.67,34.3339 2054.5,35.5 Z"/></g>
<g><path style="opacity:1" fill="#0193dc" d="M 2054.5,35.5 C 2035.45,64.006 2012.79,89.506 1986.5,112C 1944.78,145.413 1899.78,173.413 1851.5,196C 1776.77,228.645 1699.11,252.811 1618.5,268.5C 1617.71,268.217 1617.04,267.717 1616.5,267C 1617.69,265.647 1619.02,264.48 1620.5,263.5C 1619.83,263.167 1619.17,262.833 1618.5,262.5C 1615.77,264.125 1612.77,264.792 1609.5,264.5C 1609.5,265.833 1609.5,267.167 1609.5,268.5C 1605.95,266.974 1602.62,267.307 1599.5,269.5C 1599.71,270.086 1600.04,270.586 1600.5,271C 1597.24,271.064 1594.24,271.898 1591.5,273.5C 1587.52,272.23 1583.52,272.23 1579.5,273.5C 1580.95,274.172 1582.28,274.839 1583.5,275.5C 1525.39,285.623 1466.72,291.957 1407.5,294.5C 1367.84,295.275 1328.17,295.609 1288.5,295.5C 1278.14,295.2 1267.8,294.534 1257.5,293.5C 1256.39,292.71 1255.06,292.21 1253.5,292C 1246.17,291.5 1238.84,291.334 1231.5,291.5C 1190.71,288.195 1150.38,282.362 1110.5,274C 1070.9,265.445 1032.9,252.612 996.5,235.5C 1078.79,234.226 1160.46,226.726 1241.5,213C 1319.44,198.142 1393.78,173.475 1464.5,139C 1515.82,112.154 1562.49,78.6544 1604.5,38.5C 1754.44,36.8287 1904.44,35.8287 2054.5,35.5 Z"/></g>
<g><path style="opacity:1" fill="#4d4948" d="M 762.5,176.5 C 766.618,177.709 770.951,178.376 775.5,178.5C 828.204,187.429 879.204,202.429 928.5,223.5C 927.833,224.167 927.167,224.833 926.5,225.5C 864.703,224.112 803.369,228.612 742.5,239C 699.907,247.964 659.907,263.297 622.5,285C 584.907,307.95 548.24,332.116 512.5,357.5C 407.665,357.833 302.999,357.499 198.5,356.5C 220.664,327.505 246.664,302.338 276.5,281C 349.801,232.809 429.801,200.642 516.5,184.5C 519.152,184.59 521.485,183.924 523.5,182.5C 602.826,167.743 682.493,165.743 762.5,176.5 Z"/></g>
<g><path style="opacity:1" fill="#cac9c9" d="M 762.5,176.5 C 765.85,176.335 769.183,176.502 772.5,177C 773.737,177.232 774.737,177.732 775.5,178.5C 770.951,178.376 766.618,177.709 762.5,176.5 Z"/></g>
<g><path style="opacity:1" fill="#8b8a89" d="M 523.5,182.5 C 521.485,183.924 519.152,184.59 516.5,184.5C 518.515,183.076 520.848,182.41 523.5,182.5 Z"/></g>
<g><path style="opacity:1" fill="#a8a8a8" d="M 928.5,223.5 C 929.922,223.709 931.255,224.209 932.5,225C 930.527,225.495 928.527,225.662 926.5,225.5C 927.167,224.833 927.833,224.167 928.5,223.5 Z"/></g>
<g><path style="opacity:1" fill="#2f99d8" d="M 1618.5,268.5 C 1607.1,271.57 1595.44,273.903 1583.5,275.5C 1582.28,274.839 1580.95,274.172 1579.5,273.5C 1583.52,272.23 1587.52,272.23 1591.5,273.5C 1594.24,271.898 1597.24,271.064 1600.5,271C 1600.04,270.586 1599.71,270.086 1599.5,269.5C 1602.62,267.307 1605.95,266.974 1609.5,268.5C 1609.5,267.167 1609.5,265.833 1609.5,264.5C 1612.77,264.792 1615.77,264.125 1618.5,262.5C 1619.17,262.833 1619.83,263.167 1620.5,263.5C 1619.02,264.48 1617.69,265.647 1616.5,267C 1617.04,267.717 1617.71,268.217 1618.5,268.5 Z"/></g>
<g><path style="opacity:1" fill="#49a6d8" d="M 1231.5,291.5 C 1238.84,291.334 1246.17,291.5 1253.5,292C 1255.06,292.21 1256.39,292.71 1257.5,293.5C 1248.63,293.581 1239.96,292.915 1231.5,291.5 Z"/></g>
<g><path style="opacity:1" fill="#94c7e1" d="M 1407.5,294.5 C 1402.35,295.327 1397.02,295.827 1391.5,296C 1357,296.831 1322.66,296.664 1288.5,295.5C 1328.17,295.609 1367.84,295.275 1407.5,294.5 Z"/></g>
<g><path style="opacity:1" fill="#c8c6c6" d="M 198.5,356.5 C 302.999,357.499 407.665,357.833 512.5,357.5C 407.666,358.832 302.666,358.832 197.5,357.5C 197.624,356.893 197.957,356.56 198.5,356.5 Z"/></g>
<g><path style="opacity:1" fill="#4d4948" d="M 266.5,582.5 C 347.5,582.5 428.5,582.5 509.5,582.5C 509.831,555.995 509.498,529.661 508.5,503.5C 417.001,502.334 325.334,502.168 233.5,503C 206.903,502.136 182.569,508.803 160.5,523C 148,532.832 140.833,545.665 139,561.5C 138.5,618.832 138.333,676.166 138.5,733.5C 108.167,733.5 77.8333,733.5 47.5,733.5C 47.3333,676.166 47.5,618.832 48,561.5C 53.034,510.836 77.2006,472.336 120.5,446C 139.951,434.879 160.951,428.212 183.5,426C 322.166,425.5 460.833,425.333 599.5,425.5C 599.5,528.167 599.5,630.833 599.5,733.5C 569.5,733.5 539.5,733.5 509.5,733.5C 509.5,709.167 509.5,684.833 509.5,660.5C 428.5,660.5 347.5,660.5 266.5,660.5C 266.5,634.5 266.5,608.5 266.5,582.5 Z"/></g>
<g><path style="opacity:1" fill="#4d4948" d="M 1953.5,425.5 C 1983.5,425.5 2013.5,425.5 2043.5,425.5C 2043.5,528.167 2043.5,630.833 2043.5,733.5C 1902.83,733.667 1762.17,733.5 1621.5,733C 1569.89,728.873 1533.22,703.373 1511.5,656.5C 1659.17,656.667 1806.83,656.5 1954.5,656C 1953.5,579.238 1953.17,502.404 1953.5,425.5 Z"/></g>
<g><path style="opacity:1" fill="#cbcbcb" d="M 1952.5,425.5 C 1983,424.502 2013.66,424.169 2044.5,424.5C 2044.83,527.668 2044.5,630.668 2043.5,733.5C 2043.5,630.833 2043.5,528.167 2043.5,425.5C 2013.5,425.5 1983.5,425.5 1953.5,425.5C 1953.17,425.5 1952.83,425.5 1952.5,425.5 Z"/></g>
<g><path style="opacity:1" fill="#6b6a69" d="M 837.5,432.5 C 807.167,432.5 776.833,432.5 746.5,432.5C 746.5,532.833 746.5,633.167 746.5,733.5C 745.501,633.001 745.167,532.335 745.5,431.5C 776.338,431.169 807.005,431.502 837.5,432.5 Z"/></g>
<g><path style="opacity:1" fill="#4d4948" d="M 746.5,733.5 C 746.5,633.167 746.5,532.833 746.5,432.5C 776.833,432.5 807.167,432.5 837.5,432.5C 851.384,439.946 864.05,449.113 875.5,460C 946.415,515.575 1014.91,574.075 1081,635.5C 1087.4,630.817 1093.9,626.317 1100.5,622C 1150.03,579.617 1199.36,537.284 1248.5,495C 1272.78,474.866 1298.11,456.199 1324.5,439C 1329.84,435.885 1335.51,433.552 1341.5,432C 1368.5,431.5 1395.5,431.333 1422.5,431.5C 1422.5,532.167 1422.5,632.833 1422.5,733.5C 1390.17,733.5 1357.83,733.5 1325.5,733.5C 1325.5,669.833 1325.5,606.167 1325.5,542.5C 1321.89,542.799 1318.56,543.965 1315.5,546C 1304.55,553.279 1293.89,560.946 1283.5,569C 1223.53,620.304 1163.53,671.637 1103.5,723C 1098.57,726.958 1093.24,730.125 1087.5,732.5C 1083.41,731.291 1079.41,729.791 1075.5,728C 1059.55,716.391 1043.89,704.391 1028.5,692C 968.446,639.92 907.779,588.253 846.5,537C 845.552,536.517 844.552,536.351 843.5,536.5C 843.5,602.167 843.5,667.833 843.5,733.5C 811.167,733.5 778.833,733.5 746.5,733.5 Z"/></g>
<g><path style="opacity:1" fill="#dbdbda" d="M 508.5,503.5 C 509.498,529.661 509.831,555.995 509.5,582.5C 428.5,582.5 347.5,582.5 266.5,582.5C 346.998,581.501 427.665,581.167 508.5,581.5C 508.5,555.5 508.5,529.5 508.5,503.5 Z"/></g>
<g><path style="opacity:1" fill="#61605e" d="M 1952.5,425.5 C 1952.83,425.5 1953.17,425.5 1953.5,425.5C 1953.17,502.404 1953.5,579.238 1954.5,656C 1806.83,656.5 1659.17,656.667 1511.5,656.5C 1657.76,655.5 1804.76,655.167 1952.5,655.5C 1952.5,578.833 1952.5,502.167 1952.5,425.5 Z"/></g>
<g><path style="opacity:1" fill="#0093dd" d="M 47.5,793.5 C 712.5,793.333 1377.5,793.5 2042.5,794C 2043.67,794.5 2044.5,795.333 2045,796.5C 2045.67,801.5 2045.67,806.5 2045,811.5C 2044.5,812.667 2043.67,813.5 2042.5,814C 1377.5,814.667 712.5,814.667 47.5,814C 46.3333,813.5 45.5,812.667 45,811.5C 44.3333,806.5 44.3333,801.5 45,796.5C 45.6979,795.309 46.5313,794.309 47.5,793.5 Z"/></g>
<g><path style="opacity:1" fill="#4d4948" d="M 1328.5,860.5 C 1360.33,859.36 1390.99,864.693 1420.5,876.5C 1421.5,894.488 1421.83,912.488 1421.5,930.5C 1419.47,930.662 1417.47,930.495 1415.5,930C 1387.79,907.239 1356.46,899.572 1321.5,907C 1306.91,912.014 1301.74,921.847 1306,936.5C 1308.17,940 1311,942.833 1314.5,945C 1319.95,947.595 1325.62,949.595 1331.5,951C 1351.28,954.777 1370.61,960.11 1389.5,967C 1424.39,982.953 1437.22,1009.79 1428,1047.5C 1422.03,1066.8 1410.2,1081.3 1392.5,1091C 1372.04,1100.97 1350.37,1105.8 1327.5,1105.5C 1297.93,1105.88 1269.77,1099.88 1243,1087.5C 1242.5,1068.84 1242.33,1050.17 1242.5,1031.5C 1244.53,1031.34 1246.53,1031.5 1248.5,1032C 1277.78,1056.98 1311.45,1066.31 1349.5,1060C 1364.94,1055.92 1371.44,1046.09 1369,1030.5C 1365.71,1025.09 1361.21,1020.93 1355.5,1018C 1338.76,1012.65 1321.76,1008.32 1304.5,1005C 1288.99,1000.84 1274.99,993.841 1262.5,984C 1247.48,967.455 1241.31,947.955 1244,925.5C 1246.99,906.845 1256.16,892.012 1271.5,881C 1288.74,869.088 1307.74,862.255 1328.5,860.5 Z"/></g>
<g><path style="opacity:1" fill="#4d4a49" d="M 47.5,865.5 C 78.1685,865.333 108.835,865.5 139.5,866C 172.409,865.077 201.076,875.41 225.5,897C 252.245,926.296 263.079,960.796 258,1000.5C 244.776,1068.04 203.61,1101.54 134.5,1101C 105.502,1101.5 76.5019,1101.67 47.5,1101.5C 47.5,1022.83 47.5,944.167 47.5,865.5 Z"/></g>
<g><path style="opacity:1" fill="#4c4947" d="M 675.5,865.5 C 728.5,865.5 781.5,865.5 834.5,865.5C 834.5,880.5 834.5,895.5 834.5,910.5C 800.833,910.5 767.167,910.5 733.5,910.5C 733.5,924.167 733.5,937.833 733.5,951.5C 764.5,951.5 795.5,951.5 826.5,951.5C 826.5,966.5 826.5,981.5 826.5,996.5C 795.5,996.5 764.5,996.5 733.5,996.5C 733.5,1016.5 733.5,1036.5 733.5,1056.5C 767.167,1056.5 800.833,1056.5 834.5,1056.5C 834.5,1071.5 834.5,1086.5 834.5,1101.5C 781.5,1101.5 728.5,1101.5 675.5,1101.5C 675.5,1022.83 675.5,944.167 675.5,865.5 Z"/></g>
<g><path style="opacity:1" fill="#4d4a49" d="M 1900.5,865.5 C 1900.17,900.506 1900.5,935.506 1901.5,970.5C 1902.11,970.376 1902.44,970.043 1902.5,969.5C 1927.03,934.941 1951.7,900.441 1976.5,866C 1999.5,865.333 2022.5,865.333 2045.5,866C 2017.1,902.059 1989.1,938.392 1961.5,975C 1990.25,1017.16 2019.25,1059.16 2048.5,1101C 2024.49,1101.83 2000.49,1101.67 1976.5,1100.5C 1955.65,1068.78 1934.32,1037.45 1912.5,1006.5C 1908.81,1011.03 1905.31,1015.69 1902,1020.5C 1901.5,1047.5 1901.33,1074.5 1901.5,1101.5C 1881.5,1101.5 1861.5,1101.5 1841.5,1101.5C 1841.5,1022.83 1841.5,944.167 1841.5,865.5C 1861.17,865.5 1880.83,865.5 1900.5,865.5 Z"/></g>
<g><path style="opacity:1" fill="#6a6767" d="M 1900.5,865.5 C 1901.17,900.167 1901.83,934.833 1902.5,969.5C 1902.44,970.043 1902.11,970.376 1901.5,970.5C 1900.5,935.506 1900.17,900.506 1900.5,865.5 Z"/></g>
<g><path style="opacity:1" fill="#fefefe" d="M 107.5,910.5 C 173.342,904.842 203.175,934.842 197,1000.5C 192.883,1028.95 177.049,1047.11 149.5,1055C 135.545,1056.39 121.545,1056.89 107.5,1056.5C 107.5,1007.83 107.5,959.167 107.5,910.5 Z"/></g>
</svg>
